<?xml version="1.0" encoding="utf-8" standalone="no"?>
<!DOCTYPE svg PUBLIC "-//W3C//DTD SVG 1.1//EN"
  "http://www.w3.org/Graphics/SVG/1.1/DTD/svg11.dtd">
<svg xmlns:xlink="http://www.w3.org/1999/xlink" width="720pt" height="252pt" viewBox="0 0 720 252" xmlns="http://www.w3.org/2000/svg" version="1.1">
 <metadata>
  <rdf:RDF xmlns:dc="http://purl.org/dc/elements/1.1/" xmlns:cc="http://creativecommons.org/ns#" xmlns:rdf="http://www.w3.org/1999/02/22-rdf-syntax-ns#">
   <cc:Work>
    <dc:type rdf:resource="http://purl.org/dc/dcmitype/StillImage"/>
    <dc:date>2025-02-24T15:26:29.115433</dc:date>
    <dc:format>image/svg+xml</dc:format>
    <dc:creator>
     <cc:Agent>
      <dc:title>Matplotlib v3.10.0, https://matplotlib.org/</dc:title>
     </cc:Agent>
    </dc:creator>
   </cc:Work>
  </rdf:RDF>
 </metadata>
 <defs>
  <style type="text/css">*{stroke-linejoin: round; stroke-linecap: butt}</style>
 </defs>
 <g id="figure_1">
  <g id="patch_1">
   <path d="M 0 252 
L 720 252 
L 720 0 
L 0 0 
L 0 252 
z
" style="fill: none"/>
  </g>
  <g id="axes_1">
   <g id="patch_2">
    <path d="M 41.16 210.84 
L 223.283807 210.84 
L 223.283807 26.08 
L 41.16 26.08 
L 41.16 210.84 
z
" style="fill: none"/>
   </g>
   <g id="QuadMesh_1">
    <path d="M 41.16 26.08 
L 132.221903 26.08 
L 132.221903 118.46 
L 41.16 118.46 
L 41.16 26.08 
" clip-path="url(#p7d1a08d5ed)" style="fill: #808080"/>
    <path d="M 132.221903 26.08 
L 223.283807 26.08 
L 223.283807 118.46 
L 132.221903 118.46 
L 132.221903 26.08 
" clip-path="url(#p7d1a08d5ed)" style="fill: #262626"/>
    <path d="M 41.16 118.46 
L 132.221903 118.46 
L 132.221903 210.84 
L 41.16 210.84 
L 41.16 118.46 
" clip-path="url(#p7d1a08d5ed)" style="fill: #808080"/>
    <path d="M 132.221903 118.46 
L 223.283807 118.46 
L 223.283807 210.84 
L 132.221903 210.84 
L 132.221903 118.46 
" clip-path="url(#p7d1a08d5ed)" style="fill: #262626"/>
   </g>
   <g id="matplotlib.axis_1">
    <g id="xtick_1">
     <g id="line2d_1">
      <defs>
       <path id="mb71f5ccc2e" d="M 0 0 
L 0 3.5 
" style="stroke: #000000; stroke-width: 0.8"/>
      </defs>
      <g>
       <use xlink:href="#mb71f5ccc2e" x="86.690952" y="210.84" style="stroke: #000000; stroke-width: 0.8"/>
      </g>
     </g>
     <g id="text_1">
      <!-- poisonous -->
      <g transform="translate(61.40267 225.438438) scale(0.1 -0.1)">
       <defs>
        <path id="DejaVuSans-70" d="M 1159 525 
L 1159 -1331 
L 581 -1331 
L 581 3500 
L 1159 3500 
L 1159 2969 
Q 1341 3281 1617 3432 
Q 1894 3584 2278 3584 
Q 2916 3584 3314 3078 
Q 3713 2572 3713 1747 
Q 3713 922 3314 415 
Q 2916 -91 2278 -91 
Q 1894 -91 1617 61 
Q 1341 213 1159 525 
z
M 3116 1747 
Q 3116 2381 2855 2742 
Q 2594 3103 2138 3103 
Q 1681 3103 1420 2742 
Q 1159 2381 1159 1747 
Q 1159 1113 1420 752 
Q 1681 391 2138 391 
Q 2594 391 2855 752 
Q 3116 1113 3116 1747 
z
" transform="scale(0.015625)"/>
        <path id="DejaVuSans-6f" d="M 1959 3097 
Q 1497 3097 1228 2736 
Q 959 2375 959 1747 
Q 959 1119 1226 758 
Q 1494 397 1959 397 
Q 2419 397 2687 759 
Q 2956 1122 2956 1747 
Q 2956 2369 2687 2733 
Q 2419 3097 1959 3097 
z
M 1959 3584 
Q 2709 3584 3137 3096 
Q 3566 2609 3566 1747 
Q 3566 888 3137 398 
Q 2709 -91 1959 -91 
Q 1206 -91 779 398 
Q 353 888 353 1747 
Q 353 2609 779 3096 
Q 1206 3584 1959 3584 
z
" transform="scale(0.015625)"/>
        <path id="DejaVuSans-69" d="M 603 3500 
L 1178 3500 
L 1178 0 
L 603 0 
L 603 3500 
z
M 603 4863 
L 1178 4863 
L 1178 4134 
L 603 4134 
L 603 4863 
z
" transform="scale(0.015625)"/>
        <path id="DejaVuSans-73" d="M 2834 3397 
L 2834 2853 
Q 2591 2978 2328 3040 
Q 2066 3103 1784 3103 
Q 1356 3103 1142 2972 
Q 928 2841 928 2578 
Q 928 2378 1081 2264 
Q 1234 2150 1697 2047 
L 1894 2003 
Q 2506 1872 2764 1633 
Q 3022 1394 3022 966 
Q 3022 478 2636 193 
Q 2250 -91 1575 -91 
Q 1294 -91 989 -36 
Q 684 19 347 128 
L 347 722 
Q 666 556 975 473 
Q 1284 391 1588 391 
Q 1994 391 2212 530 
Q 2431 669 2431 922 
Q 2431 1156 2273 1281 
Q 2116 1406 1581 1522 
L 1381 1569 
Q 847 1681 609 1914 
Q 372 2147 372 2553 
Q 372 3047 722 3315 
Q 1072 3584 1716 3584 
Q 2034 3584 2315 3537 
Q 2597 3491 2834 3397 
z
" transform="scale(0.015625)"/>
        <path id="DejaVuSans-6e" d="M 3513 2113 
L 3513 0 
L 2938 0 
L 2938 2094 
Q 2938 2591 2744 2837 
Q 2550 3084 2163 3084 
Q 1697 3084 1428 2787 
Q 1159 2491 1159 1978 
L 1159 0 
L 581 0 
L 581 3500 
L 1159 3500 
L 1159 2956 
Q 1366 3272 1645 3428 
Q 1925 3584 2291 3584 
Q 2894 3584 3203 3211 
Q 3513 2838 3513 2113 
z
" transform="scale(0.015625)"/>
        <path id="DejaVuSans-75" d="M 544 1381 
L 544 3500 
L 1119 3500 
L 1119 1403 
Q 1119 906 1312 657 
Q 1506 409 1894 409 
Q 2359 409 2629 706 
Q 2900 1003 2900 1516 
L 2900 3500 
L 3475 3500 
L 3475 0 
L 2900 0 
L 2900 538 
Q 2691 219 2414 64 
Q 2138 -91 1772 -91 
Q 1169 -91 856 284 
Q 544 659 544 1381 
z
M 1991 3584 
L 1991 3584 
z
" transform="scale(0.015625)"/>
       </defs>
       <use xlink:href="#DejaVuSans-70"/>
       <use xlink:href="#DejaVuSans-6f" transform="translate(63.476562 0)"/>
       <use xlink:href="#DejaVuSans-69" transform="translate(124.658203 0)"/>
       <use xlink:href="#DejaVuSans-73" transform="translate(152.441406 0)"/>
       <use xlink:href="#DejaVuSans-6f" transform="translate(204.541016 0)"/>
       <use xlink:href="#DejaVuSans-6e" transform="translate(265.722656 0)"/>
       <use xlink:href="#DejaVuSans-6f" transform="translate(329.101562 0)"/>
       <use xlink:href="#DejaVuSans-75" transform="translate(390.283203 0)"/>
       <use xlink:href="#DejaVuSans-73" transform="translate(453.662109 0)"/>
      </g>
     </g>
    </g>
    <g id="xtick_2">
     <g id="line2d_2">
      <g>
       <use xlink:href="#mb71f5ccc2e" x="177.752855" y="210.84" style="stroke: #000000; stroke-width: 0.8"/>
      </g>
     </g>
     <g id="text_2">
      <!-- edible -->
      <g transform="translate(162.473168 225.438438) scale(0.1 -0.1)">
       <defs>
        <path id="DejaVuSans-65" d="M 3597 1894 
L 3597 1613 
L 953 1613 
Q 991 1019 1311 708 
Q 1631 397 2203 397 
Q 2534 397 2845 478 
Q 3156 559 3463 722 
L 3463 178 
Q 3153 47 2828 -22 
Q 2503 -91 2169 -91 
Q 1331 -91 842 396 
Q 353 884 353 1716 
Q 353 2575 817 3079 
Q 1281 3584 2069 3584 
Q 2775 3584 3186 3129 
Q 3597 2675 3597 1894 
z
M 3022 2063 
Q 3016 2534 2758 2815 
Q 2500 3097 2075 3097 
Q 1594 3097 1305 2825 
Q 1016 2553 972 2059 
L 3022 2063 
z
" transform="scale(0.015625)"/>
        <path id="DejaVuSans-64" d="M 2906 2969 
L 2906 4863 
L 3481 4863 
L 3481 0 
L 2906 0 
L 2906 525 
Q 2725 213 2448 61 
Q 2172 -91 1784 -91 
Q 1150 -91 751 415 
Q 353 922 353 1747 
Q 353 2572 751 3078 
Q 1150 3584 1784 3584 
Q 2172 3584 2448 3432 
Q 2725 3281 2906 2969 
z
M 947 1747 
Q 947 1113 1208 752 
Q 1469 391 1925 391 
Q 2381 391 2643 752 
Q 2906 1113 2906 1747 
Q 2906 2381 2643 2742 
Q 2381 3103 1925 3103 
Q 1469 3103 1208 2742 
Q 947 2381 947 1747 
z
" transform="scale(0.015625)"/>
        <path id="DejaVuSans-62" d="M 3116 1747 
Q 3116 2381 2855 2742 
Q 2594 3103 2138 3103 
Q 1681 3103 1420 2742 
Q 1159 2381 1159 1747 
Q 1159 1113 1420 752 
Q 1681 391 2138 391 
Q 2594 391 2855 752 
Q 3116 1113 3116 1747 
z
M 1159 2969 
Q 1341 3281 1617 3432 
Q 1894 3584 2278 3584 
Q 2916 3584 3314 3078 
Q 3713 2572 3713 1747 
Q 3713 922 3314 415 
Q 2916 -91 2278 -91 
Q 1894 -91 1617 61 
Q 1341 213 1159 525 
L 1159 0 
L 581 0 
L 581 4863 
L 1159 4863 
L 1159 2969 
z
" transform="scale(0.015625)"/>
        <path id="DejaVuSans-6c" d="M 603 4863 
L 1178 4863 
L 1178 0 
L 603 0 
L 603 4863 
z
" transform="scale(0.015625)"/>
       </defs>
       <use xlink:href="#DejaVuSans-65"/>
       <use xlink:href="#DejaVuSans-64" transform="translate(61.523438 0)"/>
       <use xlink:href="#DejaVuSans-69" transform="translate(125 0)"/>
       <use xlink:href="#DejaVuSans-62" transform="translate(152.783203 0)"/>
       <use xlink:href="#DejaVuSans-6c" transform="translate(216.259766 0)"/>
       <use xlink:href="#DejaVuSans-65" transform="translate(244.042969 0)"/>
      </g>
     </g>
    </g>
    <g id="text_3">
     <!-- Predicted Label -->
     <g transform="translate(93.672685 239.116563) scale(0.1 -0.1)">
      <defs>
       <path id="DejaVuSans-50" d="M 1259 4147 
L 1259 2394 
L 2053 2394 
Q 2494 2394 2734 2622 
Q 2975 2850 2975 3272 
Q 2975 3691 2734 3919 
Q 2494 4147 2053 4147 
L 1259 4147 
z
M 628 4666 
L 2053 4666 
Q 2838 4666 3239 4311 
Q 3641 3956 3641 3272 
Q 3641 2581 3239 2228 
Q 2838 1875 2053 1875 
L 1259 1875 
L 1259 0 
L 628 0 
L 628 4666 
z
" transform="scale(0.015625)"/>
       <path id="DejaVuSans-72" d="M 2631 2963 
Q 2534 3019 2420 3045 
Q 2306 3072 2169 3072 
Q 1681 3072 1420 2755 
Q 1159 2438 1159 1844 
L 1159 0 
L 581 0 
L 581 3500 
L 1159 3500 
L 1159 2956 
Q 1341 3275 1631 3429 
Q 1922 3584 2338 3584 
Q 2397 3584 2469 3576 
Q 2541 3569 2628 3553 
L 2631 2963 
z
" transform="scale(0.015625)"/>
       <path id="DejaVuSans-63" d="M 3122 3366 
L 3122 2828 
Q 2878 2963 2633 3030 
Q 2388 3097 2138 3097 
Q 1578 3097 1268 2742 
Q 959 2388 959 1747 
Q 959 1106 1268 751 
Q 1578 397 2138 397 
Q 2388 397 2633 464 
Q 2878 531 3122 666 
L 3122 134 
Q 2881 22 2623 -34 
Q 2366 -91 2075 -91 
Q 1284 -91 818 406 
Q 353 903 353 1747 
Q 353 2603 823 3093 
Q 1294 3584 2113 3584 
Q 2378 3584 2631 3529 
Q 2884 3475 3122 3366 
z
" transform="scale(0.015625)"/>
       <path id="DejaVuSans-74" d="M 1172 4494 
L 1172 3500 
L 2356 3500 
L 2356 3053 
L 1172 3053 
L 1172 1153 
Q 1172 725 1289 603 
Q 1406 481 1766 481 
L 2356 481 
L 2356 0 
L 1766 0 
Q 1100 0 847 248 
Q 594 497 594 1153 
L 594 3053 
L 172 3053 
L 172 3500 
L 594 3500 
L 594 4494 
L 1172 4494 
z
" transform="scale(0.015625)"/>
       <path id="DejaVuSans-20" transform="scale(0.015625)"/>
       <path id="DejaVuSans-4c" d="M 628 4666 
L 1259 4666 
L 1259 531 
L 3531 531 
L 3531 0 
L 628 0 
L 628 4666 
z
" transform="scale(0.015625)"/>
       <path id="DejaVuSans-61" d="M 2194 1759 
Q 1497 1759 1228 1600 
Q 959 1441 959 1056 
Q 959 750 1161 570 
Q 1363 391 1709 391 
Q 2188 391 2477 730 
Q 2766 1069 2766 1631 
L 2766 1759 
L 2194 1759 
z
M 3341 1997 
L 3341 0 
L 2766 0 
L 2766 531 
Q 2569 213 2275 61 
Q 1981 -91 1556 -91 
Q 1019 -91 701 211 
Q 384 513 384 1019 
Q 384 1609 779 1909 
Q 1175 2209 1959 2209 
L 2766 2209 
L 2766 2266 
Q 2766 2663 2505 2880 
Q 2244 3097 1772 3097 
Q 1472 3097 1187 3025 
Q 903 2953 641 2809 
L 641 3341 
Q 956 3463 1253 3523 
Q 1550 3584 1831 3584 
Q 2591 3584 2966 3190 
Q 3341 2797 3341 1997 
z
" transform="scale(0.015625)"/>
      </defs>
      <use xlink:href="#DejaVuSans-50"/>
      <use xlink:href="#DejaVuSans-72" transform="translate(58.552734 0)"/>
      <use xlink:href="#DejaVuSans-65" transform="translate(97.416016 0)"/>
      <use xlink:href="#DejaVuSans-64" transform="translate(158.939453 0)"/>
      <use xlink:href="#DejaVuSans-69" transform="translate(222.416016 0)"/>
      <use xlink:href="#DejaVuSans-63" transform="translate(250.199219 0)"/>
      <use xlink:href="#DejaVuSans-74" transform="translate(305.179688 0)"/>
      <use xlink:href="#DejaVuSans-65" transform="translate(344.388672 0)"/>
      <use xlink:href="#DejaVuSans-64" transform="translate(405.912109 0)"/>
      <use xlink:href="#DejaVuSans-20" transform="translate(469.388672 0)"/>
      <use xlink:href="#DejaVuSans-4c" transform="translate(501.175781 0)"/>
      <use xlink:href="#DejaVuSans-61" transform="translate(556.888672 0)"/>
      <use xlink:href="#DejaVuSans-62" transform="translate(618.167969 0)"/>
      <use xlink:href="#DejaVuSans-65" transform="translate(681.644531 0)"/>
      <use xlink:href="#DejaVuSans-6c" transform="translate(743.167969 0)"/>
     </g>
    </g>
   </g>
   <g id="matplotlib.axis_2">
    <g id="ytick_1">
     <g id="line2d_3">
      <defs>
       <path id="m6cd52a6a95" d="M 0 0 
L -3.5 0 
" style="stroke: #000000; stroke-width: 0.8"/>
      </defs>
      <g>
       <use xlink:href="#m6cd52a6a95" x="41.16" y="72.27" style="stroke: #000000; stroke-width: 0.8"/>
      </g>
     </g>
     <g id="text_4">
      <!-- poisonous -->
      <g transform="translate(32.080313 97.558281) rotate(-90) scale(0.1 -0.1)">
       <use xlink:href="#DejaVuSans-70"/>
       <use xlink:href="#DejaVuSans-6f" transform="translate(63.476562 0)"/>
       <use xlink:href="#DejaVuSans-69" transform="translate(124.658203 0)"/>
       <use xlink:href="#DejaVuSans-73" transform="translate(152.441406 0)"/>
       <use xlink:href="#DejaVuSans-6f" transform="translate(204.541016 0)"/>
       <use xlink:href="#DejaVuSans-6e" transform="translate(265.722656 0)"/>
       <use xlink:href="#DejaVuSans-6f" transform="translate(329.101562 0)"/>
       <use xlink:href="#DejaVuSans-75" transform="translate(390.283203 0)"/>
       <use xlink:href="#DejaVuSans-73" transform="translate(453.662109 0)"/>
      </g>
     </g>
    </g>
    <g id="ytick_2">
     <g id="line2d_4">
      <g>
       <use xlink:href="#m6cd52a6a95" x="41.16" y="164.65" style="stroke: #000000; stroke-width: 0.8"/>
      </g>
     </g>
     <g id="text_5">
      <!-- edible -->
      <g transform="translate(32.080313 179.929688) rotate(-90) scale(0.1 -0.1)">
       <use xlink:href="#DejaVuSans-65"/>
       <use xlink:href="#DejaVuSans-64" transform="translate(61.523438 0)"/>
       <use xlink:href="#DejaVuSans-69" transform="translate(125 0)"/>
       <use xlink:href="#DejaVuSans-62" transform="translate(152.783203 0)"/>
       <use xlink:href="#DejaVuSans-6c" transform="translate(216.259766 0)"/>
       <use xlink:href="#DejaVuSans-65" transform="translate(244.042969 0)"/>
      </g>
     </g>
    </g>
    <g id="text_6">
     <!-- True Label -->
     <g transform="translate(18.402188 144.156094) rotate(-90) scale(0.1 -0.1)">
      <defs>
       <path id="DejaVuSans-54" d="M -19 4666 
L 3928 4666 
L 3928 4134 
L 2272 4134 
L 2272 0 
L 1638 0 
L 1638 4134 
L -19 4134 
L -19 4666 
z
" transform="scale(0.015625)"/>
      </defs>
      <use xlink:href="#DejaVuSans-54"/>
      <use xlink:href="#DejaVuSans-72" transform="translate(46.333984 0)"/>
      <use xlink:href="#DejaVuSans-75" transform="translate(87.447266 0)"/>
      <use xlink:href="#DejaVuSans-65" transform="translate(150.826172 0)"/>
      <use xlink:href="#DejaVuSans-20" transform="translate(212.349609 0)"/>
      <use xlink:href="#DejaVuSans-4c" transform="translate(244.136719 0)"/>
      <use xlink:href="#DejaVuSans-61" transform="translate(299.849609 0)"/>
      <use xlink:href="#DejaVuSans-62" transform="translate(361.128906 0)"/>
      <use xlink:href="#DejaVuSans-65" transform="translate(424.605469 0)"/>
      <use xlink:href="#DejaVuSans-6c" transform="translate(486.128906 0)"/>
     </g>
    </g>
   </g>
   <g id="text_7">
    <!-- 820 -->
    <g style="fill: #ffffff" transform="translate(77.147202 75.029375) scale(0.1 -0.1)">
     <defs>
      <path id="DejaVuSans-38" d="M 2034 2216 
Q 1584 2216 1326 1975 
Q 1069 1734 1069 1313 
Q 1069 891 1326 650 
Q 1584 409 2034 409 
Q 2484 409 2743 651 
Q 3003 894 3003 1313 
Q 3003 1734 2745 1975 
Q 2488 2216 2034 2216 
z
M 1403 2484 
Q 997 2584 770 2862 
Q 544 3141 544 3541 
Q 544 4100 942 4425 
Q 1341 4750 2034 4750 
Q 2731 4750 3128 4425 
Q 3525 4100 3525 3541 
Q 3525 3141 3298 2862 
Q 3072 2584 2669 2484 
Q 3125 2378 3379 2068 
Q 3634 1759 3634 1313 
Q 3634 634 3220 271 
Q 2806 -91 2034 -91 
Q 1263 -91 848 271 
Q 434 634 434 1313 
Q 434 1759 690 2068 
Q 947 2378 1403 2484 
z
M 1172 3481 
Q 1172 3119 1398 2916 
Q 1625 2713 2034 2713 
Q 2441 2713 2670 2916 
Q 2900 3119 2900 3481 
Q 2900 3844 2670 4047 
Q 2441 4250 2034 4250 
Q 1625 4250 1398 4047 
Q 1172 3844 1172 3481 
z
" transform="scale(0.015625)"/>
      <path id="DejaVuSans-32" d="M 1228 531 
L 3431 531 
L 3431 0 
L 469 0 
L 469 531 
Q 828 903 1448 1529 
Q 2069 2156 2228 2338 
Q 2531 2678 2651 2914 
Q 2772 3150 2772 3378 
Q 2772 3750 2511 3984 
Q 2250 4219 1831 4219 
Q 1534 4219 1204 4116 
Q 875 4013 500 3803 
L 500 4441 
Q 881 4594 1212 4672 
Q 1544 4750 1819 4750 
Q 2544 4750 2975 4387 
Q 3406 4025 3406 3419 
Q 3406 3131 3298 2873 
Q 3191 2616 2906 2266 
Q 2828 2175 2409 1742 
Q 1991 1309 1228 531 
z
" transform="scale(0.015625)"/>
      <path id="DejaVuSans-30" d="M 2034 4250 
Q 1547 4250 1301 3770 
Q 1056 3291 1056 2328 
Q 1056 1369 1301 889 
Q 1547 409 2034 409 
Q 2525 409 2770 889 
Q 3016 1369 3016 2328 
Q 3016 3291 2770 3770 
Q 2525 4250 2034 4250 
z
M 2034 4750 
Q 2819 4750 3233 4129 
Q 3647 3509 3647 2328 
Q 3647 1150 3233 529 
Q 2819 -91 2034 -91 
Q 1250 -91 836 529 
Q 422 1150 422 2328 
Q 422 3509 836 4129 
Q 1250 4750 2034 4750 
z
" transform="scale(0.015625)"/>
     </defs>
     <use xlink:href="#DejaVuSans-38"/>
     <use xlink:href="#DejaVuSans-32" transform="translate(63.623047 0)"/>
     <use xlink:href="#DejaVuSans-30" transform="translate(127.246094 0)"/>
    </g>
   </g>
   <g id="text_8">
    <!-- 7 -->
    <g style="fill: #ffffff" transform="translate(174.571605 75.029375) scale(0.1 -0.1)">
     <defs>
      <path id="DejaVuSans-37" d="M 525 4666 
L 3525 4666 
L 3525 4397 
L 1831 0 
L 1172 0 
L 2766 4134 
L 525 4134 
L 525 4666 
z
" transform="scale(0.015625)"/>
     </defs>
     <use xlink:href="#DejaVuSans-37"/>
    </g>
   </g>
   <g id="text_9">
    <!-- 799 -->
    <g style="fill: #ffffff" transform="translate(77.147202 167.409375) scale(0.1 -0.1)">
     <defs>
      <path id="DejaVuSans-39" d="M 703 97 
L 703 672 
Q 941 559 1184 500 
Q 1428 441 1663 441 
Q 2288 441 2617 861 
Q 2947 1281 2994 2138 
Q 2813 1869 2534 1725 
Q 2256 1581 1919 1581 
Q 1219 1581 811 2004 
Q 403 2428 403 3163 
Q 403 3881 828 4315 
Q 1253 4750 1959 4750 
Q 2769 4750 3195 4129 
Q 3622 3509 3622 2328 
Q 3622 1225 3098 567 
Q 2575 -91 1691 -91 
Q 1453 -91 1209 -44 
Q 966 3 703 97 
z
M 1959 2075 
Q 2384 2075 2632 2365 
Q 2881 2656 2881 3163 
Q 2881 3666 2632 3958 
Q 2384 4250 1959 4250 
Q 1534 4250 1286 3958 
Q 1038 3666 1038 3163 
Q 1038 2656 1286 2365 
Q 1534 2075 1959 2075 
z
" transform="scale(0.015625)"/>
     </defs>
     <use xlink:href="#DejaVuSans-37"/>
     <use xlink:href="#DejaVuSans-39" transform="translate(63.623047 0)"/>
     <use xlink:href="#DejaVuSans-39" transform="translate(127.246094 0)"/>
    </g>
   </g>
   <g id="text_10">
    <!-- 80 -->
    <g style="fill: #ffffff" transform="translate(171.390355 167.409375) scale(0.1 -0.1)">
     <use xlink:href="#DejaVuSans-38"/>
     <use xlink:href="#DejaVuSans-30" transform="translate(63.623047 0)"/>
    </g>
   </g>
   <g id="text_11">
    <!-- Confusion Matrix -->
    <g transform="translate(81.580028 20.08) scale(0.12 -0.12)">
     <defs>
      <path id="DejaVuSans-43" d="M 4122 4306 
L 4122 3641 
Q 3803 3938 3442 4084 
Q 3081 4231 2675 4231 
Q 1875 4231 1450 3742 
Q 1025 3253 1025 2328 
Q 1025 1406 1450 917 
Q 1875 428 2675 428 
Q 3081 428 3442 575 
Q 3803 722 4122 1019 
L 4122 359 
Q 3791 134 3420 21 
Q 3050 -91 2638 -91 
Q 1578 -91 968 557 
Q 359 1206 359 2328 
Q 359 3453 968 4101 
Q 1578 4750 2638 4750 
Q 3056 4750 3426 4639 
Q 3797 4528 4122 4306 
z
" transform="scale(0.015625)"/>
      <path id="DejaVuSans-66" d="M 2375 4863 
L 2375 4384 
L 1825 4384 
Q 1516 4384 1395 4259 
Q 1275 4134 1275 3809 
L 1275 3500 
L 2222 3500 
L 2222 3053 
L 1275 3053 
L 1275 0 
L 697 0 
L 697 3053 
L 147 3053 
L 147 3500 
L 697 3500 
L 697 3744 
Q 697 4328 969 4595 
Q 1241 4863 1831 4863 
L 2375 4863 
z
" transform="scale(0.015625)"/>
      <path id="DejaVuSans-4d" d="M 628 4666 
L 1569 4666 
L 2759 1491 
L 3956 4666 
L 4897 4666 
L 4897 0 
L 4281 0 
L 4281 4097 
L 3078 897 
L 2444 897 
L 1241 4097 
L 1241 0 
L 628 0 
L 628 4666 
z
" transform="scale(0.015625)"/>
      <path id="DejaVuSans-78" d="M 3513 3500 
L 2247 1797 
L 3578 0 
L 2900 0 
L 1881 1375 
L 863 0 
L 184 0 
L 1544 1831 
L 300 3500 
L 978 3500 
L 1906 2253 
L 2834 3500 
L 3513 3500 
z
" transform="scale(0.015625)"/>
     </defs>
     <use xlink:href="#DejaVuSans-43"/>
     <use xlink:href="#DejaVuSans-6f" transform="translate(69.824219 0)"/>
     <use xlink:href="#DejaVuSans-6e" transform="translate(131.005859 0)"/>
     <use xlink:href="#DejaVuSans-66" transform="translate(194.384766 0)"/>
     <use xlink:href="#DejaVuSans-75" transform="translate(229.589844 0)"/>
     <use xlink:href="#DejaVuSans-73" transform="translate(292.96875 0)"/>
     <use xlink:href="#DejaVuSans-69" transform="translate(345.068359 0)"/>
     <use xlink:href="#DejaVuSans-6f" transform="translate(372.851562 0)"/>
     <use xlink:href="#DejaVuSans-6e" transform="translate(434.033203 0)"/>
     <use xlink:href="#DejaVuSans-20" transform="translate(497.412109 0)"/>
     <use xlink:href="#DejaVuSans-4d" transform="translate(529.199219 0)"/>
     <use xlink:href="#DejaVuSans-61" transform="translate(615.478516 0)"/>
     <use xlink:href="#DejaVuSans-74" transform="translate(676.757812 0)"/>
     <use xlink:href="#DejaVuSans-72" transform="translate(715.966797 0)"/>
     <use xlink:href="#DejaVuSans-69" transform="translate(757.080078 0)"/>
     <use xlink:href="#DejaVuSans-78" transform="translate(784.863281 0)"/>
    </g>
   </g>
  </g>
  <g id="axes_2">
   <g id="patch_3">
    <path d="M 281.273807 210.84 
L 463.397613 210.84 
L 463.397613 26.08 
L 281.273807 26.08 
L 281.273807 210.84 
z
" style="fill: none"/>
   </g>
   <g id="matplotlib.axis_3">
    <g id="xtick_3">
     <g id="line2d_5">
      <g>
       <use xlink:href="#mb71f5ccc2e" x="281.273807" y="210.84" style="stroke: #000000; stroke-width: 0.8"/>
      </g>
     </g>
     <g id="text_12">
      <!-- 0.0 -->
      <g transform="translate(273.322244 225.438438) scale(0.1 -0.1)">
       <defs>
        <path id="DejaVuSans-2e" d="M 684 794 
L 1344 794 
L 1344 0 
L 684 0 
L 684 794 
z
" transform="scale(0.015625)"/>
       </defs>
       <use xlink:href="#DejaVuSans-30"/>
       <use xlink:href="#DejaVuSans-2e" transform="translate(63.623047 0)"/>
       <use xlink:href="#DejaVuSans-30" transform="translate(95.410156 0)"/>
      </g>
     </g>
    </g>
    <g id="xtick_4">
     <g id="line2d_6">
      <g>
       <use xlink:href="#mb71f5ccc2e" x="317.698568" y="210.84" style="stroke: #000000; stroke-width: 0.8"/>
      </g>
     </g>
     <g id="text_13">
      <!-- 0.2 -->
      <g transform="translate(309.747006 225.438438) scale(0.1 -0.1)">
       <use xlink:href="#DejaVuSans-30"/>
       <use xlink:href="#DejaVuSans-2e" transform="translate(63.623047 0)"/>
       <use xlink:href="#DejaVuSans-32" transform="translate(95.410156 0)"/>
      </g>
     </g>
    </g>
    <g id="xtick_5">
     <g id="line2d_7">
      <g>
       <use xlink:href="#mb71f5ccc2e" x="354.123329" y="210.84" style="stroke: #000000; stroke-width: 0.8"/>
      </g>
     </g>
     <g id="text_14">
      <!-- 0.4 -->
      <g transform="translate(346.171767 225.438438) scale(0.1 -0.1)">
       <defs>
        <path id="DejaVuSans-34" d="M 2419 4116 
L 825 1625 
L 2419 1625 
L 2419 4116 
z
M 2253 4666 
L 3047 4666 
L 3047 1625 
L 3713 1625 
L 3713 1100 
L 3047 1100 
L 3047 0 
L 2419 0 
L 2419 1100 
L 313 1100 
L 313 1709 
L 2253 4666 
z
" transform="scale(0.015625)"/>
       </defs>
       <use xlink:href="#DejaVuSans-30"/>
       <use xlink:href="#DejaVuSans-2e" transform="translate(63.623047 0)"/>
       <use xlink:href="#DejaVuSans-34" transform="translate(95.410156 0)"/>
      </g>
     </g>
    </g>
    <g id="xtick_6">
     <g id="line2d_8">
      <g>
       <use xlink:href="#mb71f5ccc2e" x="390.548091" y="210.84" style="stroke: #000000; stroke-width: 0.8"/>
      </g>
     </g>
     <g id="text_15">
      <!-- 0.6 -->
      <g transform="translate(382.596528 225.438438) scale(0.1 -0.1)">
       <defs>
        <path id="DejaVuSans-36" d="M 2113 2584 
Q 1688 2584 1439 2293 
Q 1191 2003 1191 1497 
Q 1191 994 1439 701 
Q 1688 409 2113 409 
Q 2538 409 2786 701 
Q 3034 994 3034 1497 
Q 3034 2003 2786 2293 
Q 2538 2584 2113 2584 
z
M 3366 4563 
L 3366 3988 
Q 3128 4100 2886 4159 
Q 2644 4219 2406 4219 
Q 1781 4219 1451 3797 
Q 1122 3375 1075 2522 
Q 1259 2794 1537 2939 
Q 1816 3084 2150 3084 
Q 2853 3084 3261 2657 
Q 3669 2231 3669 1497 
Q 3669 778 3244 343 
Q 2819 -91 2113 -91 
Q 1303 -91 875 529 
Q 447 1150 447 2328 
Q 447 3434 972 4092 
Q 1497 4750 2381 4750 
Q 2619 4750 2861 4703 
Q 3103 4656 3366 4563 
z
" transform="scale(0.015625)"/>
       </defs>
       <use xlink:href="#DejaVuSans-30"/>
       <use xlink:href="#DejaVuSans-2e" transform="translate(63.623047 0)"/>
       <use xlink:href="#DejaVuSans-36" transform="translate(95.410156 0)"/>
      </g>
     </g>
    </g>
    <g id="xtick_7">
     <g id="line2d_9">
      <g>
       <use xlink:href="#mb71f5ccc2e" x="426.972852" y="210.84" style="stroke: #000000; stroke-width: 0.8"/>
      </g>
     </g>
     <g id="text_16">
      <!-- 0.8 -->
      <g transform="translate(419.02129 225.438438) scale(0.1 -0.1)">
       <use xlink:href="#DejaVuSans-30"/>
       <use xlink:href="#DejaVuSans-2e" transform="translate(63.623047 0)"/>
       <use xlink:href="#DejaVuSans-38" transform="translate(95.410156 0)"/>
      </g>
     </g>
    </g>
    <g id="xtick_8">
     <g id="line2d_10">
      <g>
       <use xlink:href="#mb71f5ccc2e" x="463.397613" y="210.84" style="stroke: #000000; stroke-width: 0.8"/>
      </g>
     </g>
     <g id="text_17">
      <!-- 1.0 -->
      <g transform="translate(455.446051 225.438438) scale(0.1 -0.1)">
       <defs>
        <path id="DejaVuSans-31" d="M 794 531 
L 1825 531 
L 1825 4091 
L 703 3866 
L 703 4441 
L 1819 4666 
L 2450 4666 
L 2450 531 
L 3481 531 
L 3481 0 
L 794 0 
L 794 531 
z
" transform="scale(0.015625)"/>
       </defs>
       <use xlink:href="#DejaVuSans-31"/>
       <use xlink:href="#DejaVuSans-2e" transform="translate(63.623047 0)"/>
       <use xlink:href="#DejaVuSans-30" transform="translate(95.410156 0)"/>
      </g>
     </g>
    </g>
    <g id="text_18">
     <!-- FPR (Poisonous classified as Edible) -->
     <g transform="translate(283.533366 239.116563) scale(0.1 -0.1)">
      <defs>
       <path id="DejaVuSans-46" d="M 628 4666 
L 3309 4666 
L 3309 4134 
L 1259 4134 
L 1259 2759 
L 3109 2759 
L 3109 2228 
L 1259 2228 
L 1259 0 
L 628 0 
L 628 4666 
z
" transform="scale(0.015625)"/>
       <path id="DejaVuSans-52" d="M 2841 2188 
Q 3044 2119 3236 1894 
Q 3428 1669 3622 1275 
L 4263 0 
L 3584 0 
L 2988 1197 
Q 2756 1666 2539 1819 
Q 2322 1972 1947 1972 
L 1259 1972 
L 1259 0 
L 628 0 
L 628 4666 
L 2053 4666 
Q 2853 4666 3247 4331 
Q 3641 3997 3641 3322 
Q 3641 2881 3436 2590 
Q 3231 2300 2841 2188 
z
M 1259 4147 
L 1259 2491 
L 2053 2491 
Q 2509 2491 2742 2702 
Q 2975 2913 2975 3322 
Q 2975 3731 2742 3939 
Q 2509 4147 2053 4147 
L 1259 4147 
z
" transform="scale(0.015625)"/>
       <path id="DejaVuSans-28" d="M 1984 4856 
Q 1566 4138 1362 3434 
Q 1159 2731 1159 2009 
Q 1159 1288 1364 580 
Q 1569 -128 1984 -844 
L 1484 -844 
Q 1016 -109 783 600 
Q 550 1309 550 2009 
Q 550 2706 781 3412 
Q 1013 4119 1484 4856 
L 1984 4856 
z
" transform="scale(0.015625)"/>
       <path id="DejaVuSans-45" d="M 628 4666 
L 3578 4666 
L 3578 4134 
L 1259 4134 
L 1259 2753 
L 3481 2753 
L 3481 2222 
L 1259 2222 
L 1259 531 
L 3634 531 
L 3634 0 
L 628 0 
L 628 4666 
z
" transform="scale(0.015625)"/>
       <path id="DejaVuSans-29" d="M 513 4856 
L 1013 4856 
Q 1481 4119 1714 3412 
Q 1947 2706 1947 2009 
Q 1947 1309 1714 600 
Q 1481 -109 1013 -844 
L 513 -844 
Q 928 -128 1133 580 
Q 1338 1288 1338 2009 
Q 1338 2731 1133 3434 
Q 928 4138 513 4856 
z
" transform="scale(0.015625)"/>
      </defs>
      <use xlink:href="#DejaVuSans-46"/>
      <use xlink:href="#DejaVuSans-50" transform="translate(57.519531 0)"/>
      <use xlink:href="#DejaVuSans-52" transform="translate(117.822266 0)"/>
      <use xlink:href="#DejaVuSans-20" transform="translate(187.304688 0)"/>
      <use xlink:href="#DejaVuSans-28" transform="translate(219.091797 0)"/>
      <use xlink:href="#DejaVuSans-50" transform="translate(258.105469 0)"/>
      <use xlink:href="#DejaVuSans-6f" transform="translate(314.783203 0)"/>
      <use xlink:href="#DejaVuSans-69" transform="translate(375.964844 0)"/>
      <use xlink:href="#DejaVuSans-73" transform="translate(403.748047 0)"/>
      <use xlink:href="#DejaVuSans-6f" transform="translate(455.847656 0)"/>
      <use xlink:href="#DejaVuSans-6e" transform="translate(517.029297 0)"/>
      <use xlink:href="#DejaVuSans-6f" transform="translate(580.408203 0)"/>
      <use xlink:href="#DejaVuSans-75" transform="translate(641.589844 0)"/>
      <use xlink:href="#DejaVuSans-73" transform="translate(704.96875 0)"/>
      <use xlink:href="#DejaVuSans-20" transform="translate(757.068359 0)"/>
      <use xlink:href="#DejaVuSans-63" transform="translate(788.855469 0)"/>
      <use xlink:href="#DejaVuSans-6c" transform="translate(843.835938 0)"/>
      <use xlink:href="#DejaVuSans-61" transform="translate(871.619141 0)"/>
      <use xlink:href="#DejaVuSans-73" transform="translate(932.898438 0)"/>
      <use xlink:href="#DejaVuSans-73" transform="translate(984.998047 0)"/>
      <use xlink:href="#DejaVuSans-69" transform="translate(1037.097656 0)"/>
      <use xlink:href="#DejaVuSans-66" transform="translate(1064.880859 0)"/>
      <use xlink:href="#DejaVuSans-69" transform="translate(1100.085938 0)"/>
      <use xlink:href="#DejaVuSans-65" transform="translate(1127.869141 0)"/>
      <use xlink:href="#DejaVuSans-64" transform="translate(1189.392578 0)"/>
      <use xlink:href="#DejaVuSans-20" transform="translate(1252.869141 0)"/>
      <use xlink:href="#DejaVuSans-61" transform="translate(1284.65625 0)"/>
      <use xlink:href="#DejaVuSans-73" transform="translate(1345.935547 0)"/>
      <use xlink:href="#DejaVuSans-20" transform="translate(1398.035156 0)"/>
      <use xlink:href="#DejaVuSans-45" transform="translate(1429.822266 0)"/>
      <use xlink:href="#DejaVuSans-64" transform="translate(1493.005859 0)"/>
      <use xlink:href="#DejaVuSans-69" transform="translate(1556.482422 0)"/>
      <use xlink:href="#DejaVuSans-62" transform="translate(1584.265625 0)"/>
      <use xlink:href="#DejaVuSans-6c" transform="translate(1647.742188 0)"/>
      <use xlink:href="#DejaVuSans-65" transform="translate(1675.525391 0)"/>
      <use xlink:href="#DejaVuSans-29" transform="translate(1737.048828 0)"/>
     </g>
    </g>
   </g>
   <g id="matplotlib.axis_4">
    <g id="ytick_3">
     <g id="line2d_11">
      <g>
       <use xlink:href="#m6cd52a6a95" x="281.273807" y="210.84" style="stroke: #000000; stroke-width: 0.8"/>
      </g>
     </g>
     <g id="text_19">
      <!-- 0.0 -->
      <g transform="translate(258.370682 214.639219) scale(0.1 -0.1)">
       <use xlink:href="#DejaVuSans-30"/>
       <use xlink:href="#DejaVuSans-2e" transform="translate(63.623047 0)"/>
       <use xlink:href="#DejaVuSans-30" transform="translate(95.410156 0)"/>
      </g>
     </g>
    </g>
    <g id="ytick_4">
     <g id="line2d_12">
      <g>
       <use xlink:href="#m6cd52a6a95" x="281.273807" y="175.647619" style="stroke: #000000; stroke-width: 0.8"/>
      </g>
     </g>
     <g id="text_20">
      <!-- 0.2 -->
      <g transform="translate(258.370682 179.446838) scale(0.1 -0.1)">
       <use xlink:href="#DejaVuSans-30"/>
       <use xlink:href="#DejaVuSans-2e" transform="translate(63.623047 0)"/>
       <use xlink:href="#DejaVuSans-32" transform="translate(95.410156 0)"/>
      </g>
     </g>
    </g>
    <g id="ytick_5">
     <g id="line2d_13">
      <g>
       <use xlink:href="#m6cd52a6a95" x="281.273807" y="140.455238" style="stroke: #000000; stroke-width: 0.8"/>
      </g>
     </g>
     <g id="text_21">
      <!-- 0.4 -->
      <g transform="translate(258.370682 144.254457) scale(0.1 -0.1)">
       <use xlink:href="#DejaVuSans-30"/>
       <use xlink:href="#DejaVuSans-2e" transform="translate(63.623047 0)"/>
       <use xlink:href="#DejaVuSans-34" transform="translate(95.410156 0)"/>
      </g>
     </g>
    </g>
    <g id="ytick_6">
     <g id="line2d_14">
      <g>
       <use xlink:href="#m6cd52a6a95" x="281.273807" y="105.262857" style="stroke: #000000; stroke-width: 0.8"/>
      </g>
     </g>
     <g id="text_22">
      <!-- 0.6 -->
      <g transform="translate(258.370682 109.062076) scale(0.1 -0.1)">
       <use xlink:href="#DejaVuSans-30"/>
       <use xlink:href="#DejaVuSans-2e" transform="translate(63.623047 0)"/>
       <use xlink:href="#DejaVuSans-36" transform="translate(95.410156 0)"/>
      </g>
     </g>
    </g>
    <g id="ytick_7">
     <g id="line2d_15">
      <g>
       <use xlink:href="#m6cd52a6a95" x="281.273807" y="70.070476" style="stroke: #000000; stroke-width: 0.8"/>
      </g>
     </g>
     <g id="text_23">
      <!-- 0.8 -->
      <g transform="translate(258.370682 73.869695) scale(0.1 -0.1)">
       <use xlink:href="#DejaVuSans-30"/>
       <use xlink:href="#DejaVuSans-2e" transform="translate(63.623047 0)"/>
       <use xlink:href="#DejaVuSans-38" transform="translate(95.410156 0)"/>
      </g>
     </g>
    </g>
    <g id="ytick_8">
     <g id="line2d_16">
      <g>
       <use xlink:href="#m6cd52a6a95" x="281.273807" y="34.878095" style="stroke: #000000; stroke-width: 0.8"/>
      </g>
     </g>
     <g id="text_24">
      <!-- 1.0 -->
      <g transform="translate(258.370682 38.677314) scale(0.1 -0.1)">
       <use xlink:href="#DejaVuSans-31"/>
       <use xlink:href="#DejaVuSans-2e" transform="translate(63.623047 0)"/>
       <use xlink:href="#DejaVuSans-30" transform="translate(95.410156 0)"/>
      </g>
     </g>
    </g>
    <g id="text_25">
     <!-- TPR (Edible correctly classified) -->
     <g transform="translate(252.290994 197.088906) rotate(-90) scale(0.1 -0.1)">
      <defs>
       <path id="DejaVuSans-79" d="M 2059 -325 
Q 1816 -950 1584 -1140 
Q 1353 -1331 966 -1331 
L 506 -1331 
L 506 -850 
L 844 -850 
Q 1081 -850 1212 -737 
Q 1344 -625 1503 -206 
L 1606 56 
L 191 3500 
L 800 3500 
L 1894 763 
L 2988 3500 
L 3597 3500 
L 2059 -325 
z
" transform="scale(0.015625)"/>
      </defs>
      <use xlink:href="#DejaVuSans-54"/>
      <use xlink:href="#DejaVuSans-50" transform="translate(61.083984 0)"/>
      <use xlink:href="#DejaVuSans-52" transform="translate(121.386719 0)"/>
      <use xlink:href="#DejaVuSans-20" transform="translate(190.869141 0)"/>
      <use xlink:href="#DejaVuSans-28" transform="translate(222.65625 0)"/>
      <use xlink:href="#DejaVuSans-45" transform="translate(261.669922 0)"/>
      <use xlink:href="#DejaVuSans-64" transform="translate(324.853516 0)"/>
      <use xlink:href="#DejaVuSans-69" transform="translate(388.330078 0)"/>
      <use xlink:href="#DejaVuSans-62" transform="translate(416.113281 0)"/>
      <use xlink:href="#DejaVuSans-6c" transform="translate(479.589844 0)"/>
      <use xlink:href="#DejaVuSans-65" transform="translate(507.373047 0)"/>
      <use xlink:href="#DejaVuSans-20" transform="translate(568.896484 0)"/>
      <use xlink:href="#DejaVuSans-63" transform="translate(600.683594 0)"/>
      <use xlink:href="#DejaVuSans-6f" transform="translate(655.664062 0)"/>
      <use xlink:href="#DejaVuSans-72" transform="translate(716.845703 0)"/>
      <use xlink:href="#DejaVuSans-72" transform="translate(756.208984 0)"/>
      <use xlink:href="#DejaVuSans-65" transform="translate(795.072266 0)"/>
      <use xlink:href="#DejaVuSans-63" transform="translate(856.595703 0)"/>
      <use xlink:href="#DejaVuSans-74" transform="translate(911.576172 0)"/>
      <use xlink:href="#DejaVuSans-6c" transform="translate(950.785156 0)"/>
      <use xlink:href="#DejaVuSans-79" transform="translate(978.568359 0)"/>
      <use xlink:href="#DejaVuSans-20" transform="translate(1037.748047 0)"/>
      <use xlink:href="#DejaVuSans-63" transform="translate(1069.535156 0)"/>
      <use xlink:href="#DejaVuSans-6c" transform="translate(1124.515625 0)"/>
      <use xlink:href="#DejaVuSans-61" transform="translate(1152.298828 0)"/>
      <use xlink:href="#DejaVuSans-73" transform="translate(1213.578125 0)"/>
      <use xlink:href="#DejaVuSans-73" transform="translate(1265.677734 0)"/>
      <use xlink:href="#DejaVuSans-69" transform="translate(1317.777344 0)"/>
      <use xlink:href="#DejaVuSans-66" transform="translate(1345.560547 0)"/>
      <use xlink:href="#DejaVuSans-69" transform="translate(1380.765625 0)"/>
      <use xlink:href="#DejaVuSans-65" transform="translate(1408.548828 0)"/>
      <use xlink:href="#DejaVuSans-64" transform="translate(1470.072266 0)"/>
      <use xlink:href="#DejaVuSans-29" transform="translate(1533.548828 0)"/>
     </g>
    </g>
   </g>
   <g id="line2d_17">
    <path d="M 281.273807 210.84 
L 281.273807 209.638895 
L 281.494029 209.638895 
L 281.494029 207.837237 
L 281.714251 207.837237 
L 281.714251 207.637053 
L 281.934473 207.637053 
L 281.934473 205.835395 
L 282.154696 205.835395 
L 282.154696 201.030975 
L 282.374918 201.030975 
L 282.374918 199.029133 
L 282.59514 199.029133 
L 282.59514 198.628764 
L 282.815363 198.628764 
L 282.815363 194.62508 
L 283.255807 194.62508 
L 283.255807 191.021765 
L 283.476029 191.021765 
L 283.476029 190.020844 
L 283.696252 190.020844 
L 283.696252 189.220107 
L 283.916474 189.220107 
L 283.916474 189.019923 
L 284.136696 189.019923 
L 284.136696 188.219186 
L 284.356918 188.219186 
L 284.356918 188.019002 
L 284.577141 188.019002 
L 284.577141 185.016239 
L 284.797363 185.016239 
L 284.797363 184.615871 
L 285.017585 184.615871 
L 285.017585 183.214582 
L 285.237807 183.214582 
L 285.237807 182.013476 
L 285.678252 182.013476 
L 285.678252 179.411082 
L 285.898474 179.411082 
L 285.898474 178.009793 
L 286.118696 178.009793 
L 286.118696 175.807766 
L 286.338919 175.807766 
L 286.338919 175.207214 
L 286.559141 175.207214 
L 286.559141 166.198925 
L 286.779363 166.198925 
L 286.779363 163.996899 
L 287.219808 163.996899 
L 287.219808 163.596531 
L 287.44003 163.596531 
L 287.44003 162.195241 
L 287.660252 162.195241 
L 287.660252 157.190637 
L 287.880474 157.190637 
L 287.880474 153.787505 
L 288.100697 153.787505 
L 288.100697 152.986769 
L 288.320919 152.986769 
L 288.320919 148.182348 
L 288.541141 148.182348 
L 288.541141 147.78198 
L 288.981586 147.78198 
L 288.981586 146.981243 
L 289.201808 146.981243 
L 289.201808 142.977559 
L 289.42203 142.977559 
L 289.42203 138.373322 
L 289.642252 138.373322 
L 289.642252 138.173138 
L 289.862475 138.173138 
L 289.862475 137.77277 
L 290.082697 137.77277 
L 290.082697 137.172217 
L 290.302919 137.172217 
L 290.302919 134.569823 
L 290.523142 134.569823 
L 290.523142 133.769086 
L 290.963586 133.769086 
L 290.963586 132.367797 
L 291.183808 132.367797 
L 291.183808 128.364113 
L 291.624253 128.364113 
L 291.624253 126.362271 
L 291.844475 126.362271 
L 291.844475 121.758035 
L 292.28492 121.758035 
L 292.28492 121.157482 
L 292.505142 121.157482 
L 292.505142 120.957298 
L 292.725364 120.957298 
L 292.725364 118.555087 
L 292.945586 118.555087 
L 292.945586 118.354903 
L 293.165809 118.354903 
L 293.165809 112.349378 
L 293.606253 112.349378 
L 293.606253 108.746062 
L 293.826475 108.746062 
L 293.826475 105.943483 
L 294.046698 105.943483 
L 294.046698 104.742378 
L 294.26692 104.742378 
L 294.26692 101.139063 
L 294.487142 101.139063 
L 294.487142 98.736852 
L 294.707364 98.736852 
L 294.707364 97.535747 
L 294.927587 97.535747 
L 294.927587 93.331879 
L 295.147809 93.331879 
L 295.147809 88.12709 
L 295.368031 88.12709 
L 295.368031 85.524696 
L 295.808476 85.524696 
L 295.808476 84.723959 
L 296.028698 84.723959 
L 296.028698 82.121565 
L 296.24892 82.121565 
L 296.24892 76.516407 
L 296.469142 76.516407 
L 296.469142 75.915855 
L 296.689365 75.915855 
L 296.689365 75.71567 
L 296.909587 75.71567 
L 296.909587 74.514565 
L 297.129809 74.514565 
L 297.129809 73.31346 
L 297.350031 73.31346 
L 297.350031 71.912171 
L 297.570254 71.912171 
L 297.570254 70.110513 
L 297.790476 70.110513 
L 297.790476 64.905724 
L 298.010698 64.905724 
L 298.010698 61.302409 
L 298.230921 61.302409 
L 298.230921 60.90204 
L 298.451143 60.90204 
L 298.451143 59.300567 
L 298.671365 59.300567 
L 298.671365 56.898356 
L 298.891587 56.898356 
L 298.891587 56.09762 
L 299.332032 56.09762 
L 299.332032 55.497067 
L 299.552254 55.497067 
L 299.552254 55.296883 
L 299.992699 55.296883 
L 299.992699 54.69633 
L 300.212921 54.69633 
L 300.212921 54.095778 
L 300.433143 54.095778 
L 300.433143 52.29412 
L 300.653365 52.29412 
L 300.653365 51.293199 
L 300.873588 51.293199 
L 300.873588 50.292278 
L 301.974699 50.292278 
L 301.974699 50.092094 
L 305.498255 50.092094 
L 305.498255 49.89191 
L 306.158922 49.89191 
L 306.158922 49.691725 
L 309.682478 49.691725 
L 309.682478 49.491541 
L 312.985812 49.491541 
L 312.985812 49.291357 
L 313.206034 49.291357 
L 313.206034 49.091173 
L 316.068923 49.091173 
L 316.068923 48.49062 
L 322.014924 48.49062 
L 322.014924 48.290436 
L 322.895813 48.290436 
L 322.895813 48.090252 
L 324.217147 48.090252 
L 324.217147 47.890068 
L 325.098036 47.890068 
L 325.098036 47.689884 
L 325.53848 47.689884 
L 325.53848 47.489699 
L 329.722703 47.489699 
L 329.722703 47.289515 
L 330.163148 47.289515 
L 330.163148 47.089331 
L 331.264259 47.089331 
L 331.264259 46.889147 
L 331.704704 46.889147 
L 331.704704 46.488778 
L 332.145148 46.488778 
L 332.145148 46.288594 
L 332.36537 46.288594 
L 332.36537 46.08841 
L 336.990038 46.08841 
L 336.990038 45.888226 
L 339.412483 45.888226 
L 339.412483 45.688042 
L 339.632705 45.688042 
L 339.632705 45.487857 
L 349.762929 45.487857 
L 349.762929 45.287673 
L 351.304485 45.287673 
L 351.304485 45.087489 
L 353.066263 45.087489 
L 353.066263 44.887305 
L 353.726929 44.887305 
L 353.726929 44.687121 
L 354.607818 44.687121 
L 354.607818 44.486936 
L 354.828041 44.486936 
L 354.828041 44.286752 
L 363.636931 44.286752 
L 363.636931 44.086568 
L 373.106488 44.086568 
L 373.106488 43.886384 
L 373.987377 43.886384 
L 373.987377 43.6862 
L 375.308711 43.6862 
L 375.308711 43.486015 
L 376.409822 43.486015 
L 376.409822 43.285831 
L 376.630044 43.285831 
L 376.630044 42.885463 
L 377.070489 42.885463 
L 377.070489 42.485095 
L 381.034489 42.485095 
L 381.034489 42.28491 
L 381.695156 42.28491 
L 381.695156 42.084726 
L 384.778268 42.084726 
L 384.778268 41.884542 
L 385.218712 41.884542 
L 385.218712 41.684358 
L 386.98049 41.684358 
L 386.98049 41.484174 
L 387.861379 41.484174 
L 387.861379 41.283989 
L 388.742268 41.283989 
L 388.742268 41.083805 
L 389.84338 41.083805 
L 389.84338 40.883621 
L 390.504046 40.883621 
L 390.504046 40.683437 
L 391.82538 40.683437 
L 391.82538 40.483253 
L 392.486047 40.483253 
L 392.486047 40.283068 
L 394.908491 40.283068 
L 394.908491 40.082884 
L 397.110714 40.082884 
L 397.110714 39.682516 
L 401.515159 39.682516 
L 401.515159 39.482332 
L 401.955604 39.482332 
L 401.955604 39.081963 
L 408.342049 39.081963 
L 408.342049 38.881779 
L 414.067828 38.881779 
L 414.067828 38.681595 
L 418.031828 38.681595 
L 418.031828 38.481411 
L 421.11494 38.481411 
L 421.11494 38.281227 
L 422.216051 38.281227 
L 422.216051 38.081042 
L 425.078941 38.081042 
L 425.078941 37.880858 
L 426.400274 37.880858 
L 426.400274 37.680674 
L 427.281163 37.680674 
L 427.281163 37.48049 
L 439.173165 37.48049 
L 439.173165 37.080121 
L 441.815832 37.080121 
L 441.815832 36.879937 
L 442.696721 36.879937 
L 442.696721 36.679753 
L 446.220277 36.679753 
L 446.220277 36.479569 
L 447.541611 36.479569 
L 447.541611 36.0792 
L 447.761833 36.0792 
L 447.761833 35.879016 
L 450.184278 35.879016 
L 450.184278 35.678832 
L 454.148279 35.678832 
L 454.148279 35.478648 
L 455.029168 35.478648 
L 455.029168 35.278464 
L 459.874057 35.278464 
L 459.874057 35.078279 
L 460.975169 35.078279 
L 460.975169 34.878095 
L 463.397613 34.878095 
L 463.397613 34.878095 
" clip-path="url(#pea4334494c)" style="fill: none; stroke: #262626; stroke-linecap: square"/>
   </g>
   <g id="line2d_18">
    <path d="M 281.273807 210.84 
L 463.397613 34.878095 
" clip-path="url(#pea4334494c)" style="fill: none; stroke-dasharray: 3.7,1.6; stroke-dashoffset: 0; stroke: #3c3c3c"/>
   </g>
   <g id="line2d_19">
    <path d="M 282.815363 194.62508 
" clip-path="url(#pea4334494c)" style="fill: none; stroke: #535353; stroke-width: 1.5; stroke-linecap: square"/>
    <defs>
     <path id="mb4a2f20f58" d="M 0 2 
C 0.530406 2 1.03916 1.789267 1.414214 1.414214 
C 1.789267 1.03916 2 0.530406 2 0 
C 2 -0.530406 1.789267 -1.03916 1.414214 -1.414214 
C 1.03916 -1.789267 0.530406 -2 0 -2 
C -0.530406 -2 -1.03916 -1.789267 -1.414214 -1.414214 
C -1.789267 -1.03916 -2 -0.530406 -2 0 
C -2 0.530406 -1.789267 1.03916 -1.414214 1.414214 
C -1.03916 1.789267 -0.530406 2 0 2 
z
" style="stroke: #535353"/>
    </defs>
    <g clip-path="url(#pea4334494c)">
     <use xlink:href="#mb4a2f20f58" x="282.815363" y="194.62508" style="fill: #535353; stroke: #535353"/>
    </g>
   </g>
   <g id="patch_4">
    <path d="M 281.273807 210.84 
L 281.273807 26.08 
" style="fill: none; stroke: #000000; stroke-width: 0.8; stroke-linejoin: miter; stroke-linecap: square"/>
   </g>
   <g id="patch_5">
    <path d="M 463.397613 210.84 
L 463.397613 26.08 
" style="fill: none; stroke: #000000; stroke-width: 0.8; stroke-linejoin: miter; stroke-linecap: square"/>
   </g>
   <g id="patch_6">
    <path d="M 281.273807 210.84 
L 463.397613 210.84 
" style="fill: none; stroke: #000000; stroke-width: 0.8; stroke-linejoin: miter; stroke-linecap: square"/>
   </g>
   <g id="patch_7">
    <path d="M 281.273807 26.08 
L 463.397613 26.08 
" style="fill: none; stroke: #000000; stroke-width: 0.8; stroke-linejoin: miter; stroke-linecap: square"/>
   </g>
   <g id="text_26">
    <!-- Receiver Operating Curve -->
    <g transform="translate(294.863523 20.08) scale(0.12 -0.12)">
     <defs>
      <path id="DejaVuSans-76" d="M 191 3500 
L 800 3500 
L 1894 563 
L 2988 3500 
L 3597 3500 
L 2284 0 
L 1503 0 
L 191 3500 
z
" transform="scale(0.015625)"/>
      <path id="DejaVuSans-4f" d="M 2522 4238 
Q 1834 4238 1429 3725 
Q 1025 3213 1025 2328 
Q 1025 1447 1429 934 
Q 1834 422 2522 422 
Q 3209 422 3611 934 
Q 4013 1447 4013 2328 
Q 4013 3213 3611 3725 
Q 3209 4238 2522 4238 
z
M 2522 4750 
Q 3503 4750 4090 4092 
Q 4678 3434 4678 2328 
Q 4678 1225 4090 567 
Q 3503 -91 2522 -91 
Q 1538 -91 948 565 
Q 359 1222 359 2328 
Q 359 3434 948 4092 
Q 1538 4750 2522 4750 
z
" transform="scale(0.015625)"/>
      <path id="DejaVuSans-67" d="M 2906 1791 
Q 2906 2416 2648 2759 
Q 2391 3103 1925 3103 
Q 1463 3103 1205 2759 
Q 947 2416 947 1791 
Q 947 1169 1205 825 
Q 1463 481 1925 481 
Q 2391 481 2648 825 
Q 2906 1169 2906 1791 
z
M 3481 434 
Q 3481 -459 3084 -895 
Q 2688 -1331 1869 -1331 
Q 1566 -1331 1297 -1286 
Q 1028 -1241 775 -1147 
L 775 -588 
Q 1028 -725 1275 -790 
Q 1522 -856 1778 -856 
Q 2344 -856 2625 -561 
Q 2906 -266 2906 331 
L 2906 616 
Q 2728 306 2450 153 
Q 2172 0 1784 0 
Q 1141 0 747 490 
Q 353 981 353 1791 
Q 353 2603 747 3093 
Q 1141 3584 1784 3584 
Q 2172 3584 2450 3431 
Q 2728 3278 2906 2969 
L 2906 3500 
L 3481 3500 
L 3481 434 
z
" transform="scale(0.015625)"/>
     </defs>
     <use xlink:href="#DejaVuSans-52"/>
     <use xlink:href="#DejaVuSans-65" transform="translate(64.982422 0)"/>
     <use xlink:href="#DejaVuSans-63" transform="translate(126.505859 0)"/>
     <use xlink:href="#DejaVuSans-65" transform="translate(181.486328 0)"/>
     <use xlink:href="#DejaVuSans-69" transform="translate(243.009766 0)"/>
     <use xlink:href="#DejaVuSans-76" transform="translate(270.792969 0)"/>
     <use xlink:href="#DejaVuSans-65" transform="translate(329.972656 0)"/>
     <use xlink:href="#DejaVuSans-72" transform="translate(391.496094 0)"/>
     <use xlink:href="#DejaVuSans-20" transform="translate(432.609375 0)"/>
     <use xlink:href="#DejaVuSans-4f" transform="translate(464.396484 0)"/>
     <use xlink:href="#DejaVuSans-70" transform="translate(543.107422 0)"/>
     <use xlink:href="#DejaVuSans-65" transform="translate(606.583984 0)"/>
     <use xlink:href="#DejaVuSans-72" transform="translate(668.107422 0)"/>
     <use xlink:href="#DejaVuSans-61" transform="translate(709.220703 0)"/>
     <use xlink:href="#DejaVuSans-74" transform="translate(770.5 0)"/>
     <use xlink:href="#DejaVuSans-69" transform="translate(809.708984 0)"/>
     <use xlink:href="#DejaVuSans-6e" transform="translate(837.492188 0)"/>
     <use xlink:href="#DejaVuSans-67" transform="translate(900.871094 0)"/>
     <use xlink:href="#DejaVuSans-20" transform="translate(964.347656 0)"/>
     <use xlink:href="#DejaVuSans-43" transform="translate(996.134766 0)"/>
     <use xlink:href="#DejaVuSans-75" transform="translate(1065.958984 0)"/>
     <use xlink:href="#DejaVuSans-72" transform="translate(1129.337891 0)"/>
     <use xlink:href="#DejaVuSans-76" transform="translate(1170.451172 0)"/>
     <use xlink:href="#DejaVuSans-65" transform="translate(1229.630859 0)"/>
    </g>
   </g>
   <g id="legend_1">
    <g id="patch_8">
     <path d="M 302.272613 205.84 
L 456.397613 205.84 
Q 458.397613 205.84 458.397613 203.84 
L 458.397613 160.805625 
Q 458.397613 158.805625 456.397613 158.805625 
L 302.272613 158.805625 
Q 300.272613 158.805625 300.272613 160.805625 
L 300.272613 203.84 
Q 300.272613 205.84 302.272613 205.84 
L 302.272613 205.84 
z
" style="fill: none; opacity: 0.8; stroke: #cccccc; stroke-linejoin: miter"/>
    </g>
    <g id="line2d_20">
     <path d="M 304.272613 166.904063 
L 314.272613 166.904063 
L 324.272613 166.904063 
" style="fill: none; stroke: #262626; stroke-linecap: square"/>
    </g>
    <g id="text_27">
     <!-- ROC curve (AUC = 0.91) -->
     <g transform="translate(332.272613 170.404063) scale(0.1 -0.1)">
      <defs>
       <path id="DejaVuSans-41" d="M 2188 4044 
L 1331 1722 
L 3047 1722 
L 2188 4044 
z
M 1831 4666 
L 2547 4666 
L 4325 0 
L 3669 0 
L 3244 1197 
L 1141 1197 
L 716 0 
L 50 0 
L 1831 4666 
z
" transform="scale(0.015625)"/>
       <path id="DejaVuSans-55" d="M 556 4666 
L 1191 4666 
L 1191 1831 
Q 1191 1081 1462 751 
Q 1734 422 2344 422 
Q 2950 422 3222 751 
Q 3494 1081 3494 1831 
L 3494 4666 
L 4128 4666 
L 4128 1753 
Q 4128 841 3676 375 
Q 3225 -91 2344 -91 
Q 1459 -91 1007 375 
Q 556 841 556 1753 
L 556 4666 
z
" transform="scale(0.015625)"/>
       <path id="DejaVuSans-3d" d="M 678 2906 
L 4684 2906 
L 4684 2381 
L 678 2381 
L 678 2906 
z
M 678 1631 
L 4684 1631 
L 4684 1100 
L 678 1100 
L 678 1631 
z
" transform="scale(0.015625)"/>
      </defs>
      <use xlink:href="#DejaVuSans-52"/>
      <use xlink:href="#DejaVuSans-4f" transform="translate(69.482422 0)"/>
      <use xlink:href="#DejaVuSans-43" transform="translate(148.193359 0)"/>
      <use xlink:href="#DejaVuSans-20" transform="translate(218.017578 0)"/>
      <use xlink:href="#DejaVuSans-63" transform="translate(249.804688 0)"/>
      <use xlink:href="#DejaVuSans-75" transform="translate(304.785156 0)"/>
      <use xlink:href="#DejaVuSans-72" transform="translate(368.164062 0)"/>
      <use xlink:href="#DejaVuSans-76" transform="translate(409.277344 0)"/>
      <use xlink:href="#DejaVuSans-65" transform="translate(468.457031 0)"/>
      <use xlink:href="#DejaVuSans-20" transform="translate(529.980469 0)"/>
      <use xlink:href="#DejaVuSans-28" transform="translate(561.767578 0)"/>
      <use xlink:href="#DejaVuSans-41" transform="translate(600.78125 0)"/>
      <use xlink:href="#DejaVuSans-55" transform="translate(669.189453 0)"/>
      <use xlink:href="#DejaVuSans-43" transform="translate(742.382812 0)"/>
      <use xlink:href="#DejaVuSans-20" transform="translate(812.207031 0)"/>
      <use xlink:href="#DejaVuSans-3d" transform="translate(843.994141 0)"/>
      <use xlink:href="#DejaVuSans-20" transform="translate(927.783203 0)"/>
      <use xlink:href="#DejaVuSans-30" transform="translate(959.570312 0)"/>
      <use xlink:href="#DejaVuSans-2e" transform="translate(1023.193359 0)"/>
      <use xlink:href="#DejaVuSans-39" transform="translate(1054.980469 0)"/>
      <use xlink:href="#DejaVuSans-31" transform="translate(1118.603516 0)"/>
      <use xlink:href="#DejaVuSans-29" transform="translate(1182.226562 0)"/>
     </g>
    </g>
    <g id="line2d_21">
     <path d="M 304.272613 181.582188 
L 314.272613 181.582188 
L 324.272613 181.582188 
" style="fill: none; stroke-dasharray: 3.7,1.6; stroke-dashoffset: 0; stroke: #3c3c3c"/>
    </g>
    <g id="text_28">
     <!-- Random classifier -->
     <g transform="translate(332.272613 185.082188) scale(0.1 -0.1)">
      <defs>
       <path id="DejaVuSans-6d" d="M 3328 2828 
Q 3544 3216 3844 3400 
Q 4144 3584 4550 3584 
Q 5097 3584 5394 3201 
Q 5691 2819 5691 2113 
L 5691 0 
L 5113 0 
L 5113 2094 
Q 5113 2597 4934 2840 
Q 4756 3084 4391 3084 
Q 3944 3084 3684 2787 
Q 3425 2491 3425 1978 
L 3425 0 
L 2847 0 
L 2847 2094 
Q 2847 2600 2669 2842 
Q 2491 3084 2119 3084 
Q 1678 3084 1418 2786 
Q 1159 2488 1159 1978 
L 1159 0 
L 581 0 
L 581 3500 
L 1159 3500 
L 1159 2956 
Q 1356 3278 1631 3431 
Q 1906 3584 2284 3584 
Q 2666 3584 2933 3390 
Q 3200 3197 3328 2828 
z
" transform="scale(0.015625)"/>
      </defs>
      <use xlink:href="#DejaVuSans-52"/>
      <use xlink:href="#DejaVuSans-61" transform="translate(67.232422 0)"/>
      <use xlink:href="#DejaVuSans-6e" transform="translate(128.511719 0)"/>
      <use xlink:href="#DejaVuSans-64" transform="translate(191.890625 0)"/>
      <use xlink:href="#DejaVuSans-6f" transform="translate(255.367188 0)"/>
      <use xlink:href="#DejaVuSans-6d" transform="translate(316.548828 0)"/>
      <use xlink:href="#DejaVuSans-20" transform="translate(413.960938 0)"/>
      <use xlink:href="#DejaVuSans-63" transform="translate(445.748047 0)"/>
      <use xlink:href="#DejaVuSans-6c" transform="translate(500.728516 0)"/>
      <use xlink:href="#DejaVuSans-61" transform="translate(528.511719 0)"/>
      <use xlink:href="#DejaVuSans-73" transform="translate(589.791016 0)"/>
      <use xlink:href="#DejaVuSans-73" transform="translate(641.890625 0)"/>
      <use xlink:href="#DejaVuSans-69" transform="translate(693.990234 0)"/>
      <use xlink:href="#DejaVuSans-66" transform="translate(721.773438 0)"/>
      <use xlink:href="#DejaVuSans-69" transform="translate(756.978516 0)"/>
      <use xlink:href="#DejaVuSans-65" transform="translate(784.761719 0)"/>
      <use xlink:href="#DejaVuSans-72" transform="translate(846.285156 0)"/>
     </g>
    </g>
    <g id="line2d_22">
     <path d="M 304.272613 196.260312 
L 314.272613 196.260312 
L 324.272613 196.260312 
" style="fill: none; stroke: #535353; stroke-width: 1.5; stroke-linecap: square"/>
     <g>
      <use xlink:href="#mb4a2f20f58" x="314.272613" y="196.260312" style="fill: #535353; stroke: #535353"/>
     </g>
    </g>
    <g id="text_29">
     <!-- Threshold = 0.75 -->
     <g transform="translate(332.272613 199.760312) scale(0.1 -0.1)">
      <defs>
       <path id="DejaVuSans-68" d="M 3513 2113 
L 3513 0 
L 2938 0 
L 2938 2094 
Q 2938 2591 2744 2837 
Q 2550 3084 2163 3084 
Q 1697 3084 1428 2787 
Q 1159 2491 1159 1978 
L 1159 0 
L 581 0 
L 581 4863 
L 1159 4863 
L 1159 2956 
Q 1366 3272 1645 3428 
Q 1925 3584 2291 3584 
Q 2894 3584 3203 3211 
Q 3513 2838 3513 2113 
z
" transform="scale(0.015625)"/>
       <path id="DejaVuSans-35" d="M 691 4666 
L 3169 4666 
L 3169 4134 
L 1269 4134 
L 1269 2991 
Q 1406 3038 1543 3061 
Q 1681 3084 1819 3084 
Q 2600 3084 3056 2656 
Q 3513 2228 3513 1497 
Q 3513 744 3044 326 
Q 2575 -91 1722 -91 
Q 1428 -91 1123 -41 
Q 819 9 494 109 
L 494 744 
Q 775 591 1075 516 
Q 1375 441 1709 441 
Q 2250 441 2565 725 
Q 2881 1009 2881 1497 
Q 2881 1984 2565 2268 
Q 2250 2553 1709 2553 
Q 1456 2553 1204 2497 
Q 953 2441 691 2322 
L 691 4666 
z
" transform="scale(0.015625)"/>
      </defs>
      <use xlink:href="#DejaVuSans-54"/>
      <use xlink:href="#DejaVuSans-68" transform="translate(61.083984 0)"/>
      <use xlink:href="#DejaVuSans-72" transform="translate(124.462891 0)"/>
      <use xlink:href="#DejaVuSans-65" transform="translate(163.326172 0)"/>
      <use xlink:href="#DejaVuSans-73" transform="translate(224.849609 0)"/>
      <use xlink:href="#DejaVuSans-68" transform="translate(276.949219 0)"/>
      <use xlink:href="#DejaVuSans-6f" transform="translate(340.328125 0)"/>
      <use xlink:href="#DejaVuSans-6c" transform="translate(401.509766 0)"/>
      <use xlink:href="#DejaVuSans-64" transform="translate(429.292969 0)"/>
      <use xlink:href="#DejaVuSans-20" transform="translate(492.769531 0)"/>
      <use xlink:href="#DejaVuSans-3d" transform="translate(524.556641 0)"/>
      <use xlink:href="#DejaVuSans-20" transform="translate(608.345703 0)"/>
      <use xlink:href="#DejaVuSans-30" transform="translate(640.132812 0)"/>
      <use xlink:href="#DejaVuSans-2e" transform="translate(703.755859 0)"/>
      <use xlink:href="#DejaVuSans-37" transform="translate(735.542969 0)"/>
      <use xlink:href="#DejaVuSans-35" transform="translate(799.166016 0)"/>
     </g>
    </g>
   </g>
  </g>
  <g id="axes_3">
   <g id="patch_9">
    <path d="M 521.387613 210.84 
L 703.51142 210.84 
L 703.51142 26.08 
L 521.387613 26.08 
L 521.387613 210.84 
z
" style="fill: none"/>
   </g>
   <g id="patch_10">
    <path d="M 529.665968 210.84 
L 535.184872 210.84 
L 535.184872 34.878095 
L 529.665968 34.878095 
z
" clip-path="url(#pbfd47966e5)" style="fill: #262626; fill-opacity: 0.6; stroke: #000000; stroke-width: 0.497326; stroke-linejoin: miter"/>
   </g>
   <g id="patch_11">
    <path d="M 535.184872 210.84 
L 540.703775 210.84 
L 540.703775 196.979182 
L 535.184872 196.979182 
z
" clip-path="url(#pbfd47966e5)" style="fill: #262626; fill-opacity: 0.6; stroke: #000000; stroke-width: 0.497326; stroke-linejoin: miter"/>
   </g>
   <g id="patch_12">
    <path d="M 540.703775 210.84 
L 546.222678 210.84 
L 546.222678 209.430425 
L 540.703775 209.430425 
z
" clip-path="url(#pbfd47966e5)" style="fill: #262626; fill-opacity: 0.6; stroke: #000000; stroke-width: 0.497326; stroke-linejoin: miter"/>
   </g>
   <g id="patch_13">
    <path d="M 546.222678 210.84 
L 551.741581 210.84 
L 551.741581 210.605071 
L 546.222678 210.605071 
z
" clip-path="url(#pbfd47966e5)" style="fill: #262626; fill-opacity: 0.6; stroke: #000000; stroke-width: 0.497326; stroke-linejoin: miter"/>
   </g>
   <g id="patch_14">
    <path d="M 551.741581 210.84 
L 557.260484 210.84 
L 557.260484 210.84 
L 551.741581 210.84 
z
" clip-path="url(#pbfd47966e5)" style="fill: #262626; fill-opacity: 0.6; stroke: #000000; stroke-width: 0.497326; stroke-linejoin: miter"/>
   </g>
   <g id="patch_15">
    <path d="M 557.260484 210.84 
L 562.779388 210.84 
L 562.779388 210.84 
L 557.260484 210.84 
z
" clip-path="url(#pbfd47966e5)" style="fill: #262626; fill-opacity: 0.6; stroke: #000000; stroke-width: 0.497326; stroke-linejoin: miter"/>
   </g>
   <g id="patch_16">
    <path d="M 562.779388 210.84 
L 568.298291 210.84 
L 568.298291 210.84 
L 562.779388 210.84 
z
" clip-path="url(#pbfd47966e5)" style="fill: #262626; fill-opacity: 0.6; stroke: #000000; stroke-width: 0.497326; stroke-linejoin: miter"/>
   </g>
   <g id="patch_17">
    <path d="M 568.298291 210.84 
L 573.817194 210.84 
L 573.817194 209.900284 
L 568.298291 209.900284 
z
" clip-path="url(#pbfd47966e5)" style="fill: #262626; fill-opacity: 0.6; stroke: #000000; stroke-width: 0.497326; stroke-linejoin: miter"/>
   </g>
   <g id="patch_18">
    <path d="M 573.817194 210.84 
L 579.336097 210.84 
L 579.336097 210.605071 
L 573.817194 210.605071 
z
" clip-path="url(#pbfd47966e5)" style="fill: #262626; fill-opacity: 0.6; stroke: #000000; stroke-width: 0.497326; stroke-linejoin: miter"/>
   </g>
   <g id="patch_19">
    <path d="M 579.336097 210.84 
L 584.855001 210.84 
L 584.855001 210.84 
L 579.336097 210.84 
z
" clip-path="url(#pbfd47966e5)" style="fill: #262626; fill-opacity: 0.6; stroke: #000000; stroke-width: 0.497326; stroke-linejoin: miter"/>
   </g>
   <g id="patch_20">
    <path d="M 584.855001 210.84 
L 590.373904 210.84 
L 590.373904 210.135213 
L 584.855001 210.135213 
z
" clip-path="url(#pbfd47966e5)" style="fill: #262626; fill-opacity: 0.6; stroke: #000000; stroke-width: 0.497326; stroke-linejoin: miter"/>
   </g>
   <g id="patch_21">
    <path d="M 590.373904 210.84 
L 595.892807 210.84 
L 595.892807 210.135213 
L 590.373904 210.135213 
z
" clip-path="url(#pbfd47966e5)" style="fill: #262626; fill-opacity: 0.6; stroke: #000000; stroke-width: 0.497326; stroke-linejoin: miter"/>
   </g>
   <g id="patch_22">
    <path d="M 595.892807 210.84 
L 601.41171 210.84 
L 601.41171 209.900284 
L 595.892807 209.900284 
z
" clip-path="url(#pbfd47966e5)" style="fill: #262626; fill-opacity: 0.6; stroke: #000000; stroke-width: 0.497326; stroke-linejoin: miter"/>
   </g>
   <g id="patch_23">
    <path d="M 601.41171 210.84 
L 606.930614 210.84 
L 606.930614 208.020851 
L 601.41171 208.020851 
z
" clip-path="url(#pbfd47966e5)" style="fill: #262626; fill-opacity: 0.6; stroke: #000000; stroke-width: 0.497326; stroke-linejoin: miter"/>
   </g>
   <g id="patch_24">
    <path d="M 606.930614 210.84 
L 612.449517 210.84 
L 612.449517 205.201701 
L 606.930614 205.201701 
z
" clip-path="url(#pbfd47966e5)" style="fill: #262626; fill-opacity: 0.6; stroke: #000000; stroke-width: 0.497326; stroke-linejoin: miter"/>
   </g>
   <g id="patch_25">
    <path d="M 612.449517 210.84 
L 617.96842 210.84 
L 617.96842 204.731843 
L 612.449517 204.731843 
z
" clip-path="url(#pbfd47966e5)" style="fill: #262626; fill-opacity: 0.6; stroke: #000000; stroke-width: 0.497326; stroke-linejoin: miter"/>
   </g>
   <g id="patch_26">
    <path d="M 617.96842 210.84 
L 623.487323 210.84 
L 623.487323 199.093544 
L 617.96842 199.093544 
z
" clip-path="url(#pbfd47966e5)" style="fill: #262626; fill-opacity: 0.6; stroke: #000000; stroke-width: 0.497326; stroke-linejoin: miter"/>
   </g>
   <g id="patch_27">
    <path d="M 623.487323 210.84 
L 629.006226 210.84 
L 629.006226 193.455246 
L 623.487323 193.455246 
z
" clip-path="url(#pbfd47966e5)" style="fill: #262626; fill-opacity: 0.6; stroke: #000000; stroke-width: 0.497326; stroke-linejoin: miter"/>
   </g>
   <g id="patch_28">
    <path d="M 629.006226 210.84 
L 634.52513 210.84 
L 634.52513 180.064286 
L 629.006226 180.064286 
z
" clip-path="url(#pbfd47966e5)" style="fill: #262626; fill-opacity: 0.6; stroke: #000000; stroke-width: 0.497326; stroke-linejoin: miter"/>
   </g>
   <g id="patch_29">
    <path d="M 634.52513 210.84 
L 640.044033 210.84 
L 640.044033 182.413577 
L 634.52513 182.413577 
z
" clip-path="url(#pbfd47966e5)" style="fill: #262626; fill-opacity: 0.6; stroke: #000000; stroke-width: 0.497326; stroke-linejoin: miter"/>
   </g>
   <g id="patch_30">
    <path d="M 640.044033 210.84 
L 645.562936 210.84 
L 645.562936 176.070491 
L 640.044033 176.070491 
z
" clip-path="url(#pbfd47966e5)" style="fill: #262626; fill-opacity: 0.6; stroke: #000000; stroke-width: 0.497326; stroke-linejoin: miter"/>
   </g>
   <g id="patch_31">
    <path d="M 645.562936 210.84 
L 651.081839 210.84 
L 651.081839 182.883436 
L 645.562936 182.883436 
z
" clip-path="url(#pbfd47966e5)" style="fill: #262626; fill-opacity: 0.6; stroke: #000000; stroke-width: 0.497326; stroke-linejoin: miter"/>
   </g>
   <g id="patch_32">
    <path d="M 651.081839 210.84 
L 656.600743 210.84 
L 656.600743 191.340884 
L 651.081839 191.340884 
z
" clip-path="url(#pbfd47966e5)" style="fill: #262626; fill-opacity: 0.6; stroke: #000000; stroke-width: 0.497326; stroke-linejoin: miter"/>
   </g>
   <g id="patch_33">
    <path d="M 656.600743 210.84 
L 662.119646 210.84 
L 662.119646 199.563403 
L 656.600743 199.563403 
z
" clip-path="url(#pbfd47966e5)" style="fill: #262626; fill-opacity: 0.6; stroke: #000000; stroke-width: 0.497326; stroke-linejoin: miter"/>
   </g>
   <g id="patch_34">
    <path d="M 662.119646 210.84 
L 667.638549 210.84 
L 667.638549 208.25578 
L 662.119646 208.25578 
z
" clip-path="url(#pbfd47966e5)" style="fill: #262626; fill-opacity: 0.6; stroke: #000000; stroke-width: 0.497326; stroke-linejoin: miter"/>
   </g>
   <g id="patch_35">
    <path d="M 667.638549 210.84 
L 673.157452 210.84 
L 673.157452 208.725638 
L 667.638549 208.725638 
z
" clip-path="url(#pbfd47966e5)" style="fill: #262626; fill-opacity: 0.6; stroke: #000000; stroke-width: 0.497326; stroke-linejoin: miter"/>
   </g>
   <g id="patch_36">
    <path d="M 673.157452 210.84 
L 678.676356 210.84 
L 678.676356 209.900284 
L 673.157452 209.900284 
z
" clip-path="url(#pbfd47966e5)" style="fill: #262626; fill-opacity: 0.6; stroke: #000000; stroke-width: 0.497326; stroke-linejoin: miter"/>
   </g>
   <g id="patch_37">
    <path d="M 678.676356 210.84 
L 684.195259 210.84 
L 684.195259 210.135213 
L 678.676356 210.135213 
z
" clip-path="url(#pbfd47966e5)" style="fill: #262626; fill-opacity: 0.6; stroke: #000000; stroke-width: 0.497326; stroke-linejoin: miter"/>
   </g>
   <g id="patch_38">
    <path d="M 684.195259 210.84 
L 689.714162 210.84 
L 689.714162 209.665354 
L 684.195259 209.665354 
z
" clip-path="url(#pbfd47966e5)" style="fill: #262626; fill-opacity: 0.6; stroke: #000000; stroke-width: 0.497326; stroke-linejoin: miter"/>
   </g>
   <g id="patch_39">
    <path d="M 689.714162 210.84 
L 695.233065 210.84 
L 695.233065 208.960567 
L 689.714162 208.960567 
z
" clip-path="url(#pbfd47966e5)" style="fill: #262626; fill-opacity: 0.6; stroke: #000000; stroke-width: 0.497326; stroke-linejoin: miter"/>
   </g>
   <g id="matplotlib.axis_5">
    <g id="xtick_9">
     <g id="line2d_23">
      <g>
       <use xlink:href="#mb71f5ccc2e" x="529.053999" y="210.84" style="stroke: #000000; stroke-width: 0.8"/>
      </g>
     </g>
     <g id="text_30">
      <!-- 0.0 -->
      <g transform="translate(521.102436 225.438438) scale(0.1 -0.1)">
       <use xlink:href="#DejaVuSans-30"/>
       <use xlink:href="#DejaVuSans-2e" transform="translate(63.623047 0)"/>
       <use xlink:href="#DejaVuSans-30" transform="translate(95.410156 0)"/>
      </g>
     </g>
    </g>
    <g id="xtick_10">
     <g id="line2d_24">
      <g>
       <use xlink:href="#mb71f5ccc2e" x="562.928669" y="210.84" style="stroke: #000000; stroke-width: 0.8"/>
      </g>
     </g>
     <g id="text_31">
      <!-- 0.2 -->
      <g transform="translate(554.977106 225.438438) scale(0.1 -0.1)">
       <use xlink:href="#DejaVuSans-30"/>
       <use xlink:href="#DejaVuSans-2e" transform="translate(63.623047 0)"/>
       <use xlink:href="#DejaVuSans-32" transform="translate(95.410156 0)"/>
      </g>
     </g>
    </g>
    <g id="xtick_11">
     <g id="line2d_25">
      <g>
       <use xlink:href="#mb71f5ccc2e" x="596.803339" y="210.84" style="stroke: #000000; stroke-width: 0.8"/>
      </g>
     </g>
     <g id="text_32">
      <!-- 0.4 -->
      <g transform="translate(588.851777 225.438438) scale(0.1 -0.1)">
       <use xlink:href="#DejaVuSans-30"/>
       <use xlink:href="#DejaVuSans-2e" transform="translate(63.623047 0)"/>
       <use xlink:href="#DejaVuSans-34" transform="translate(95.410156 0)"/>
      </g>
     </g>
    </g>
    <g id="xtick_12">
     <g id="line2d_26">
      <g>
       <use xlink:href="#mb71f5ccc2e" x="630.678009" y="210.84" style="stroke: #000000; stroke-width: 0.8"/>
      </g>
     </g>
     <g id="text_33">
      <!-- 0.6 -->
      <g transform="translate(622.726447 225.438438) scale(0.1 -0.1)">
       <use xlink:href="#DejaVuSans-30"/>
       <use xlink:href="#DejaVuSans-2e" transform="translate(63.623047 0)"/>
       <use xlink:href="#DejaVuSans-36" transform="translate(95.410156 0)"/>
      </g>
     </g>
    </g>
    <g id="xtick_13">
     <g id="line2d_27">
      <g>
       <use xlink:href="#mb71f5ccc2e" x="664.55268" y="210.84" style="stroke: #000000; stroke-width: 0.8"/>
      </g>
     </g>
     <g id="text_34">
      <!-- 0.8 -->
      <g transform="translate(656.601117 225.438438) scale(0.1 -0.1)">
       <use xlink:href="#DejaVuSans-30"/>
       <use xlink:href="#DejaVuSans-2e" transform="translate(63.623047 0)"/>
       <use xlink:href="#DejaVuSans-38" transform="translate(95.410156 0)"/>
      </g>
     </g>
    </g>
    <g id="xtick_14">
     <g id="line2d_28">
      <g>
       <use xlink:href="#mb71f5ccc2e" x="698.42735" y="210.84" style="stroke: #000000; stroke-width: 0.8"/>
      </g>
     </g>
     <g id="text_35">
      <!-- 1.0 -->
      <g transform="translate(690.475787 225.438438) scale(0.1 -0.1)">
       <use xlink:href="#DejaVuSans-31"/>
       <use xlink:href="#DejaVuSans-2e" transform="translate(63.623047 0)"/>
       <use xlink:href="#DejaVuSans-30" transform="translate(95.410156 0)"/>
      </g>
     </g>
    </g>
   </g>
   <g id="matplotlib.axis_6">
    <g id="ytick_9">
     <g id="line2d_29">
      <g>
       <use xlink:href="#m6cd52a6a95" x="521.387613" y="210.84" style="stroke: #000000; stroke-width: 0.8"/>
      </g>
     </g>
     <g id="text_36">
      <!-- 0 -->
      <g transform="translate(508.025113 214.639219) scale(0.1 -0.1)">
       <use xlink:href="#DejaVuSans-30"/>
      </g>
     </g>
    </g>
    <g id="ytick_10">
     <g id="line2d_30">
      <g>
       <use xlink:href="#m6cd52a6a95" x="521.387613" y="187.347089" style="stroke: #000000; stroke-width: 0.8"/>
      </g>
     </g>
     <g id="text_37">
      <!-- 100 -->
      <g transform="translate(495.300113 191.146308) scale(0.1 -0.1)">
       <use xlink:href="#DejaVuSans-31"/>
       <use xlink:href="#DejaVuSans-30" transform="translate(63.623047 0)"/>
       <use xlink:href="#DejaVuSans-30" transform="translate(127.246094 0)"/>
      </g>
     </g>
    </g>
    <g id="ytick_11">
     <g id="line2d_31">
      <g>
       <use xlink:href="#m6cd52a6a95" x="521.387613" y="163.854178" style="stroke: #000000; stroke-width: 0.8"/>
      </g>
     </g>
     <g id="text_38">
      <!-- 200 -->
      <g transform="translate(495.300113 167.653396) scale(0.1 -0.1)">
       <use xlink:href="#DejaVuSans-32"/>
       <use xlink:href="#DejaVuSans-30" transform="translate(63.623047 0)"/>
       <use xlink:href="#DejaVuSans-30" transform="translate(127.246094 0)"/>
      </g>
     </g>
    </g>
    <g id="ytick_12">
     <g id="line2d_32">
      <g>
       <use xlink:href="#m6cd52a6a95" x="521.387613" y="140.361266" style="stroke: #000000; stroke-width: 0.8"/>
      </g>
     </g>
     <g id="text_39">
      <!-- 300 -->
      <g transform="translate(495.300113 144.160485) scale(0.1 -0.1)">
       <defs>
        <path id="DejaVuSans-33" d="M 2597 2516 
Q 3050 2419 3304 2112 
Q 3559 1806 3559 1356 
Q 3559 666 3084 287 
Q 2609 -91 1734 -91 
Q 1441 -91 1130 -33 
Q 819 25 488 141 
L 488 750 
Q 750 597 1062 519 
Q 1375 441 1716 441 
Q 2309 441 2620 675 
Q 2931 909 2931 1356 
Q 2931 1769 2642 2001 
Q 2353 2234 1838 2234 
L 1294 2234 
L 1294 2753 
L 1863 2753 
Q 2328 2753 2575 2939 
Q 2822 3125 2822 3475 
Q 2822 3834 2567 4026 
Q 2313 4219 1838 4219 
Q 1578 4219 1281 4162 
Q 984 4106 628 3988 
L 628 4550 
Q 988 4650 1302 4700 
Q 1616 4750 1894 4750 
Q 2613 4750 3031 4423 
Q 3450 4097 3450 3541 
Q 3450 3153 3228 2886 
Q 3006 2619 2597 2516 
z
" transform="scale(0.015625)"/>
       </defs>
       <use xlink:href="#DejaVuSans-33"/>
       <use xlink:href="#DejaVuSans-30" transform="translate(63.623047 0)"/>
       <use xlink:href="#DejaVuSans-30" transform="translate(127.246094 0)"/>
      </g>
     </g>
    </g>
    <g id="ytick_13">
     <g id="line2d_33">
      <g>
       <use xlink:href="#m6cd52a6a95" x="521.387613" y="116.868355" style="stroke: #000000; stroke-width: 0.8"/>
      </g>
     </g>
     <g id="text_40">
      <!-- 400 -->
      <g transform="translate(495.300113 120.667574) scale(0.1 -0.1)">
       <use xlink:href="#DejaVuSans-34"/>
       <use xlink:href="#DejaVuSans-30" transform="translate(63.623047 0)"/>
       <use xlink:href="#DejaVuSans-30" transform="translate(127.246094 0)"/>
      </g>
     </g>
    </g>
    <g id="ytick_14">
     <g id="line2d_34">
      <g>
       <use xlink:href="#m6cd52a6a95" x="521.387613" y="93.375444" style="stroke: #000000; stroke-width: 0.8"/>
      </g>
     </g>
     <g id="text_41">
      <!-- 500 -->
      <g transform="translate(495.300113 97.174663) scale(0.1 -0.1)">
       <use xlink:href="#DejaVuSans-35"/>
       <use xlink:href="#DejaVuSans-30" transform="translate(63.623047 0)"/>
       <use xlink:href="#DejaVuSans-30" transform="translate(127.246094 0)"/>
      </g>
     </g>
    </g>
    <g id="ytick_15">
     <g id="line2d_35">
      <g>
       <use xlink:href="#m6cd52a6a95" x="521.387613" y="69.882533" style="stroke: #000000; stroke-width: 0.8"/>
      </g>
     </g>
     <g id="text_42">
      <!-- 600 -->
      <g transform="translate(495.300113 73.681752) scale(0.1 -0.1)">
       <use xlink:href="#DejaVuSans-36"/>
       <use xlink:href="#DejaVuSans-30" transform="translate(63.623047 0)"/>
       <use xlink:href="#DejaVuSans-30" transform="translate(127.246094 0)"/>
      </g>
     </g>
    </g>
    <g id="ytick_16">
     <g id="line2d_36">
      <g>
       <use xlink:href="#m6cd52a6a95" x="521.387613" y="46.389622" style="stroke: #000000; stroke-width: 0.8"/>
      </g>
     </g>
     <g id="text_43">
      <!-- 700 -->
      <g transform="translate(495.300113 50.18884) scale(0.1 -0.1)">
       <use xlink:href="#DejaVuSans-37"/>
       <use xlink:href="#DejaVuSans-30" transform="translate(63.623047 0)"/>
       <use xlink:href="#DejaVuSans-30" transform="translate(127.246094 0)"/>
      </g>
     </g>
    </g>
    <g id="text_44">
     <!-- Count -->
     <g transform="translate(489.220426 133.308437) rotate(-90) scale(0.1 -0.1)">
      <use xlink:href="#DejaVuSans-43"/>
      <use xlink:href="#DejaVuSans-6f" transform="translate(69.824219 0)"/>
      <use xlink:href="#DejaVuSans-75" transform="translate(131.005859 0)"/>
      <use xlink:href="#DejaVuSans-6e" transform="translate(194.384766 0)"/>
      <use xlink:href="#DejaVuSans-74" transform="translate(257.763672 0)"/>
     </g>
    </g>
   </g>
   <g id="patch_40">
    <path d="M 521.387613 210.84 
L 521.387613 26.08 
" style="fill: none; stroke: #000000; stroke-width: 0.8; stroke-linejoin: miter; stroke-linecap: square"/>
   </g>
   <g id="patch_41">
    <path d="M 703.51142 210.84 
L 703.51142 26.08 
" style="fill: none; stroke: #000000; stroke-width: 0.8; stroke-linejoin: miter; stroke-linecap: square"/>
   </g>
   <g id="patch_42">
    <path d="M 521.387613 210.84 
L 703.51142 210.84 
" style="fill: none; stroke: #000000; stroke-width: 0.8; stroke-linejoin: miter; stroke-linecap: square"/>
   </g>
   <g id="patch_43">
    <path d="M 521.387613 26.08 
L 703.51142 26.08 
" style="fill: none; stroke: #000000; stroke-width: 0.8; stroke-linejoin: miter; stroke-linecap: square"/>
   </g>
   <g id="text_45">
    <!-- Histogram of Predictions -->
    <g transform="translate(538.797642 20.08) scale(0.12 -0.12)">
     <defs>
      <path id="DejaVuSans-48" d="M 628 4666 
L 1259 4666 
L 1259 2753 
L 3553 2753 
L 3553 4666 
L 4184 4666 
L 4184 0 
L 3553 0 
L 3553 2222 
L 1259 2222 
L 1259 0 
L 628 0 
L 628 4666 
z
" transform="scale(0.015625)"/>
     </defs>
     <use xlink:href="#DejaVuSans-48"/>
     <use xlink:href="#DejaVuSans-69" transform="translate(75.195312 0)"/>
     <use xlink:href="#DejaVuSans-73" transform="translate(102.978516 0)"/>
     <use xlink:href="#DejaVuSans-74" transform="translate(155.078125 0)"/>
     <use xlink:href="#DejaVuSans-6f" transform="translate(194.287109 0)"/>
     <use xlink:href="#DejaVuSans-67" transform="translate(255.46875 0)"/>
     <use xlink:href="#DejaVuSans-72" transform="translate(318.945312 0)"/>
     <use xlink:href="#DejaVuSans-61" transform="translate(360.058594 0)"/>
     <use xlink:href="#DejaVuSans-6d" transform="translate(421.337891 0)"/>
     <use xlink:href="#DejaVuSans-20" transform="translate(518.75 0)"/>
     <use xlink:href="#DejaVuSans-6f" transform="translate(550.537109 0)"/>
     <use xlink:href="#DejaVuSans-66" transform="translate(611.71875 0)"/>
     <use xlink:href="#DejaVuSans-20" transform="translate(646.923828 0)"/>
     <use xlink:href="#DejaVuSans-50" transform="translate(678.710938 0)"/>
     <use xlink:href="#DejaVuSans-72" transform="translate(737.263672 0)"/>
     <use xlink:href="#DejaVuSans-65" transform="translate(776.126953 0)"/>
     <use xlink:href="#DejaVuSans-64" transform="translate(837.650391 0)"/>
     <use xlink:href="#DejaVuSans-69" transform="translate(901.126953 0)"/>
     <use xlink:href="#DejaVuSans-63" transform="translate(928.910156 0)"/>
     <use xlink:href="#DejaVuSans-74" transform="translate(983.890625 0)"/>
     <use xlink:href="#DejaVuSans-69" transform="translate(1023.099609 0)"/>
     <use xlink:href="#DejaVuSans-6f" transform="translate(1050.882812 0)"/>
     <use xlink:href="#DejaVuSans-6e" transform="translate(1112.064453 0)"/>
     <use xlink:href="#DejaVuSans-73" transform="translate(1175.443359 0)"/>
    </g>
   </g>
  </g>
 </g>
 <defs>
  <clipPath id="p7d1a08d5ed">
   <rect x="41.16" y="26.08" width="182.123807" height="184.76"/>
  </clipPath>
  <clipPath id="pea4334494c">
   <rect x="281.273807" y="26.08" width="182.123807" height="184.76"/>
  </clipPath>
  <clipPath id="pbfd47966e5">
   <rect x="521.387613" y="26.08" width="182.123807" height="184.76"/>
  </clipPath>
 </defs>
</svg>
